<?xml version="1.0" standalone="no"?>
<!DOCTYPE svg PUBLIC "-//W3C//DTD SVG 20010904//EN"
 "http://www.w3.org/TR/2001/REC-SVG-20010904/DTD/svg10.dtd">
<svg version="1.0" xmlns="http://www.w3.org/2000/svg"
 width="1022.000000pt" height="1280.000000pt" viewBox="0 0 1022.000000 1280.000000"
 preserveAspectRatio="xMidYMid meet">
<metadata>
Created by potrace 1.15, written by Peter Selinger 2001-2017
</metadata>
<g transform="translate(0.000000,1280.000000) scale(0.100000,-0.100000)"
fill="#000000" stroke="none">
<path d="M4210 12794 c-167 -24 -262 -50 -405 -109 -246 -101 -476 -263 -657
-463 l-71 -80 -100 -26 c-335 -88 -574 -287 -1037 -866 -69 -85 -163 -195
-210 -245 -511 -538 -713 -820 -866 -1210 -36 -92 -81 -185 -390 -795 -196
-387 -269 -582 -353 -945 -84 -367 -113 -561 -115 -785 -1 -130 2 -155 26
-240 45 -156 50 -238 43 -640 -5 -300 -4 -384 9 -470 15 -104 54 -247 83 -304
8 -16 26 -74 39 -130 39 -159 97 -337 219 -666 179 -483 237 -680 275 -930 39
-254 108 -458 359 -1053 39 -93 100 -250 136 -350 152 -424 272 -665 478 -959
236 -336 576 -677 910 -911 386 -271 758 -443 1233 -569 154 -40 164 -42 309
-41 168 0 248 16 368 73 285 135 406 399 327 716 -19 75 -20 93 -10 128 34
117 134 246 189 246 21 0 34 -7 42 -22 18 -34 4 -161 -31 -273 -70 -225 -42
-398 87 -529 89 -91 195 -146 370 -192 128 -33 396 -44 544 -21 84 13 104 13
165 0 48 -10 106 -13 194 -10 220 8 348 68 684 321 253 190 321 235 434 289
233 108 582 397 785 649 141 176 273 392 358 587 23 52 63 122 89 156 239 305
404 766 479 1342 12 87 28 212 36 278 26 210 98 403 274 730 281 523 337 664
387 975 43 273 53 372 79 770 33 502 71 763 133 900 187 413 131 961 -147
1424 -30 51 -56 112 -70 164 -96 359 -263 728 -476 1052 -95 144 -153 218
-353 455 -141 166 -333 418 -657 861 -173 237 -304 404 -434 553 -67 78 -101
107 -187 161 -58 36 -239 161 -402 277 -163 117 -343 242 -399 278 -215 138
-416 229 -618 281 -99 26 -127 28 -281 29 l-170 0 -86 -43 c-273 -134 -485
-503 -553 -959 -24 -165 -21 -234 16 -308 40 -83 50 -215 25 -348 -31 -162
-97 -297 -146 -297 -44 0 -54 51 -90 460 -63 700 -139 1053 -296 1375 -92 189
-100 198 -185 223 -121 36 -285 51 -389 36z m182 -546 c89 -53 147 -156 174
-311 23 -133 5 -300 -39 -361 -13 -18 -15 -18 -68 1 -91 34 -188 48 -329 48
-142 -1 -210 -16 -210 -49 0 -22 56 -60 135 -91 178 -70 441 -221 506 -292
126 -134 103 -235 -71 -323 -44 -22 -60 -37 -69 -60 -17 -50 6 -86 113 -185
110 -102 136 -139 136 -196 0 -52 -18 -85 -77 -140 -56 -52 -116 -78 -493
-209 -469 -164 -662 -268 -832 -449 -84 -88 -120 -141 -173 -254 -62 -131 -73
-187 -86 -407 -19 -352 -45 -469 -113 -512 -66 -41 -196 2 -312 105 -75 66
-108 86 -192 117 -94 34 -188 53 -397 80 -247 32 -332 59 -409 130 -61 56 -88
124 -90 222 0 43 -2 78 -2 78 -1 0 -41 -41 -90 -91 -49 -50 -163 -155 -254
-234 -188 -162 -318 -294 -375 -381 -21 -32 -52 -75 -67 -95 -40 -50 -46 -96
-17 -133 64 -82 245 -72 299 16 24 40 27 122 5 174 -14 35 -14 37 14 73 82
103 199 175 326 201 99 21 283 14 415 -14 202 -43 442 -138 635 -251 55 -32
128 -74 163 -92 114 -63 155 -135 238 -421 44 -152 64 -202 84 -202 31 0 82
104 121 247 38 145 100 222 241 304 37 21 99 57 137 79 83 48 111 80 111 127
0 55 -24 94 -132 209 -114 122 -158 201 -179 314 -14 80 -3 172 32 264 46 123
168 272 314 381 89 67 246 142 350 166 104 25 145 38 236 72 141 54 351 75
489 48 77 -15 195 -75 224 -114 36 -48 50 -110 36 -165 -15 -60 -51 -129 -92
-175 l-33 -39 -40 32 c-67 55 -152 90 -216 90 -125 0 -244 -109 -309 -284
l-10 -28 -50 46 c-35 33 -57 46 -73 44 -20 -3 -22 -8 -21 -63 1 -70 22 -141
74 -246 79 -160 162 -239 252 -239 43 0 52 4 88 40 22 22 53 66 69 99 25 49
37 61 67 71 205 68 282 -205 137 -482 -63 -120 -153 -195 -250 -206 -32 -3
-47 -11 -59 -31 -55 -82 -176 -182 -289 -238 -89 -44 -147 -65 -400 -143 -246
-76 -380 -133 -479 -204 -58 -41 -134 -115 -166 -162 -19 -27 -124 -54 -211
-54 -179 0 -330 94 -460 286 -49 72 -149 270 -149 294 0 21 -16 8 -39 -33 -56
-98 -173 -236 -387 -457 -334 -343 -419 -454 -503 -653 -47 -111 -63 -183 -97
-437 -32 -239 -42 -446 -24 -490 16 -39 44 -39 91 0 50 40 69 85 69 162 1 160
43 432 96 605 40 134 111 290 174 384 98 145 260 276 413 333 l67 26 135 -50
c74 -28 197 -73 273 -101 248 -92 459 -122 598 -85 123 33 249 128 328 247 34
52 45 60 135 102 284 132 616 204 991 214 187 5 403 -7 419 -23 3 -3 6 -114 6
-247 -1 -198 -6 -290 -30 -502 -23 -209 -29 -306 -29 -495 -1 -129 3 -265 7
-301 l8 -66 -58 -33 c-183 -103 -314 -262 -406 -495 -37 -92 -82 -260 -93
-349 l-7 -48 34 7 c19 3 116 33 215 66 151 49 194 59 250 59 110 0 157 -40
180 -151 14 -67 11 -98 -18 -253 -18 -97 -20 -136 -16 -335 3 -124 1 -239 -4
-256 -18 -63 -28 -158 -43 -405 -18 -301 -33 -413 -74 -542 -59 -183 -154
-288 -312 -343 -36 -13 -39 -12 -75 16 -120 95 -251 30 -326 -163 -29 -73 -31
-197 -4 -227 38 -42 116 -21 206 54 53 44 94 62 184 81 125 27 209 -12 257
-118 22 -49 24 -65 24 -223 0 -102 -6 -198 -14 -240 -41 -215 -124 -509 -182
-646 -63 -151 -61 -137 -69 -519 -8 -391 -11 -415 -73 -506 -44 -67 -107 -98
-197 -98 -38 -1 -71 2 -74 5 -18 17 -49 134 -58 216 -9 73 -7 145 7 336 19
267 14 344 -26 438 -28 64 -101 131 -173 158 -48 18 -234 47 -243 37 -1 -1 6
-27 16 -57 51 -143 66 -336 35 -439 -24 -82 -79 -156 -138 -188 -18 -9 -12
-14 47 -40 125 -57 207 -159 207 -258 -1 -140 -112 -225 -300 -229 -49 -1
-103 -9 -129 -19 -75 -28 -132 -18 -184 32 -57 54 -72 199 -33 310 15 43 15
44 -19 111 -18 38 -65 119 -102 182 -152 252 -193 349 -193 457 0 84 45 170
120 229 111 87 156 132 185 184 l30 54 -3 194 c-3 268 -4 266 170 426 48 45
108 151 133 238 20 68 22 200 4 273 -15 66 -96 236 -150 315 -23 35 -100 139
-171 232 -113 148 -216 292 -271 378 -31 47 -73 185 -112 364 -57 263 -93 405
-106 421 -10 12 -15 13 -25 2 -20 -19 -54 -163 -54 -224 0 -29 -9 -124 -21
-211 -29 -223 -17 -297 60 -378 22 -22 48 -58 59 -81 12 -22 80 -141 151 -262
158 -268 199 -349 244 -478 46 -131 61 -232 54 -347 -7 -108 -23 -167 -79
-284 -76 -160 -145 -200 -223 -131 -44 38 -91 107 -174 254 -106 188 -144 213
-189 122 l-24 -47 21 -56 c57 -151 2 -243 -235 -403 -67 -44 -128 -88 -137
-97 -41 -41 -6 -64 134 -88 84 -14 89 -13 158 9 159 52 345 63 419 25 69 -35
67 -89 -7 -185 -80 -104 -95 -113 -191 -119 -153 -8 -207 -56 -198 -171 6 -74
37 -143 164 -372 156 -281 186 -378 140 -449 -18 -27 -20 -28 -30 -11 -63 107
-143 178 -385 344 -284 195 -361 284 -361 417 0 43 7 75 25 113 l24 53 -27 10
c-15 6 -91 33 -170 60 -173 59 -230 87 -289 142 -42 39 -103 142 -103 175 0 8
-20 45 -45 83 -146 225 -225 481 -212 685 l6 91 -57 7 c-83 9 -148 34 -182 68
-26 25 -30 37 -30 81 0 66 19 106 120 262 87 135 119 197 120 233 0 18 -5 22
-32 22 -52 0 -154 28 -210 56 -201 102 -289 357 -193 558 l24 51 -38 70 c-21
38 -94 158 -163 265 -69 107 -143 227 -164 265 -168 300 -204 534 -115 760
l27 70 -68 66 c-171 167 -177 336 -22 702 147 347 174 437 174 577 0 107 -10
140 -43 140 -28 0 -49 -15 -180 -132 -54 -49 -105 -88 -113 -88 -23 0 -18 132
10 241 13 52 52 171 85 264 34 94 68 195 76 226 17 66 19 163 5 206 -9 25 -3
51 43 184 149 428 340 804 537 1057 l75 97 87 5 c48 3 92 10 99 17 13 13 15
10 -119 135 -62 59 -102 120 -102 158 0 76 98 149 324 241 98 40 97 70 -6 126
-26 14 -48 29 -48 32 0 24 67 93 171 178 158 127 155 124 168 149 15 30 -6 46
-70 52 l-51 5 49 49 c71 73 190 163 348 263 327 206 410 279 471 410 40 88
108 154 202 198 58 28 77 32 147 31 98 -1 169 -26 256 -91 102 -77 239 -267
224 -312 -3 -11 -36 -69 -72 -128 -88 -145 -113 -200 -113 -251 0 -55 17 -88
74 -140 l45 -42 -14 -55 c-20 -77 -60 -152 -187 -354 -164 -260 -201 -342
-177 -394 12 -27 60 -53 81 -44 14 5 233 377 325 552 153 289 235 501 287 736
4 18 42 53 128 119 165 126 228 180 228 196 0 17 -34 7 -137 -40 -44 -19 -103
-41 -133 -47 -160 -34 -329 41 -395 176 -88 179 4 353 217 409 31 8 89 26 128
40 121 44 210 31 210 -31 0 -48 -55 -127 -103 -147 -31 -12 66 -47 134 -48 87
-1 131 56 174 227 14 55 33 117 42 138 38 87 110 82 234 -16 30 -24 46 -28 98
-29 72 -1 98 15 86 53 -4 12 -49 66 -100 118 -104 109 -125 137 -125 167 0 48
53 64 205 61 100 -2 114 -5 157 -29z m-872 -4 c18 -21 3 -61 -31 -87 -23 -17
-31 -18 -62 -8 -20 7 -41 19 -48 27 -13 16 0 30 65 66 39 22 60 22 76 2z
m2751 -283 c24 -15 91 -77 149 -137 229 -238 258 -255 450 -265 220 -11 322
-44 445 -145 117 -97 228 -275 255 -405 21 -107 -21 -189 -106 -205 -93 -17
-181 5 -649 162 -359 120 -510 151 -699 141 -61 -3 -138 -13 -171 -22 -70 -19
-207 -84 -249 -118 l-29 -23 99 -33 c286 -96 323 -134 174 -178 -136 -41 -305
11 -341 105 -13 34 -11 128 5 203 36 170 142 279 317 326 46 12 101 17 199 17
215 -1 405 -50 660 -169 166 -78 278 -113 317 -99 106 37 -77 255 -303 361
-75 35 -85 37 -214 43 -113 5 -142 10 -178 28 -98 51 -186 163 -222 280 -24
77 -25 110 -4 140 20 29 41 28 95 -7z m-3127 6 c29 -21 17 -67 -24 -95 -31
-21 -43 -23 -113 -20 -43 3 -82 9 -88 15 -7 7 5 22 39 47 86 62 148 80 186 53z
m-520 -212 c9 -24 -4 -45 -29 -45 -32 0 -40 17 -19 41 21 23 40 25 48 4z
m5241 -539 c99 -42 345 -248 345 -289 0 -24 -20 -18 -135 42 -85 44 -203 139
-227 184 -13 25 -28 77 -22 77 3 0 20 -6 39 -14z m-1274 -591 c52 -7 190 -36
305 -64 273 -64 407 -87 584 -101 325 -25 406 -45 481 -120 29 -29 52 -63 58
-86 13 -45 14 -87 4 -82 -5 2 -20 10 -36 18 -53 26 -52 2 4 -141 71 -184 79
-212 86 -306 9 -119 -6 -150 -116 -251 -134 -123 -149 -177 -62 -221 22 -12
113 -39 202 -61 231 -57 322 -102 378 -186 16 -24 32 -61 35 -82 4 -20 21 -80
37 -132 107 -332 302 -574 517 -640 99 -31 94 -37 87 93 -14 261 -36 380 -81
449 -37 58 -73 72 -166 63 -71 -6 -84 -4 -133 19 -141 64 -292 274 -360 501
-100 334 -16 568 217 602 29 5 103 8 163 8 97 0 116 -3 160 -25 69 -35 161
-130 290 -298 61 -78 132 -171 158 -205 71 -90 157 -276 227 -487 148 -446
204 -559 358 -722 54 -57 74 -86 90 -135 34 -97 45 -195 39 -328 -9 -176 -39
-294 -164 -650 -33 -93 -66 -194 -73 -223 l-12 -52 -34 45 c-57 73 -114 93
-151 53 -51 -56 -73 -143 -73 -288 0 -166 39 -303 110 -384 25 -28 34 -49 38
-84 6 -69 -20 -193 -68 -318 -112 -291 -133 -392 -112 -526 l11 -73 -70 -220
c-178 -555 -224 -671 -319 -809 -86 -125 -172 -191 -284 -220 -33 -9 -61 -14
-63 -12 -2 2 -20 64 -39 137 -97 369 -211 629 -278 629 -32 0 -55 -29 -76 -98
l-19 -60 30 -55 c53 -98 84 -210 134 -474 35 -188 62 -288 95 -352 50 -95 50
-96 116 -82 212 42 267 -31 214 -287 -30 -148 -154 -602 -200 -737 -88 -254
-187 -388 -305 -415 -39 -9 -45 2 -45 91 0 82 22 197 84 434 94 357 106 488
55 605 -23 53 -125 158 -139 143 -4 -4 -17 -44 -29 -88 -11 -44 -48 -161 -81
-260 -141 -419 -172 -585 -149 -791 28 -258 24 -245 92 -262 23 -6 67 -16 98
-22 74 -14 94 -29 85 -63 -8 -35 -116 -149 -170 -181 -62 -36 -94 -77 -191
-240 -100 -169 -155 -234 -227 -270 -58 -29 -133 -34 -201 -13 l-38 12 39 60
c21 33 96 139 166 235 127 174 192 282 181 300 -24 38 -176 -50 -297 -170
-102 -102 -181 -219 -303 -450 -116 -220 -184 -320 -276 -410 -95 -94 -174
-141 -311 -185 -177 -58 -251 -51 -598 53 -181 55 -315 78 -388 67 -104 -15
-202 -81 -264 -177 l-33 -50 -51 4 c-62 5 -106 34 -145 96 -57 90 -85 212
-120 532 -11 102 -24 201 -29 219 -8 28 -5 48 15 103 14 38 35 114 47 171 22
100 23 114 20 607 -3 467 -1 514 17 621 11 63 32 148 47 187 22 60 31 73 53
79 52 12 98 42 111 72 16 41 -4 100 -76 222 -121 204 -161 306 -151 390 8 64
29 104 91 167 l51 53 -1 77 c-1 64 -10 101 -48 212 -105 307 -122 398 -120
680 0 147 14 215 62 304 47 87 151 155 241 156 20 1 12 8 -39 33 -97 47 -190
144 -240 248 -74 157 -96 289 -112 679 -11 280 -11 287 11 375 60 249 77 473
61 830 -6 138 -14 410 -17 606 -5 310 -3 366 11 440 47 232 216 369 454 369
209 0 414 -91 578 -256 l81 -81 64 -7 c119 -11 179 20 179 93 0 49 -54 158
-127 257 -71 95 -226 260 -281 297 -59 42 -148 49 -372 30 -212 -17 -313 -13
-393 17 -68 26 -148 95 -176 153 -33 69 -53 191 -53 322 1 300 103 525 279
611 106 52 263 32 393 -51 30 -19 75 -44 100 -56 25 -11 146 -69 270 -129 254
-122 330 -150 354 -131 14 11 14 17 1 47 -16 39 -80 124 -162 217 -101 114
-134 195 -95 229 34 31 88 34 223 13z m1653 -4 c127 -45 276 -183 345 -321 61
-122 53 -208 -21 -246 -70 -36 -260 -26 -324 18 -38 26 -72 74 -84 119 -5 19
-16 93 -25 165 -15 132 -31 196 -60 237 -8 12 -15 25 -15 28 0 23 119 23 184
0z m-3442 -1476 c8 -19 8 -28 -2 -40 -17 -20 -24 -19 -57 9 -24 20 -25 26 -14
40 21 25 60 20 73 -9z m-3872 -5547 c0 -38 -3 -49 -10 -38 -16 25 -11 90 7 90
2 0 3 -24 3 -52z"/>
<path d="M2192 10845 c-46 -45 -46 -45 -17 -39 17 3 50 15 75 26 67 29 77 58
19 58 -22 0 -43 -12 -77 -45z"/>
<path d="M1780 10630 c-44 -23 -173 -130 -166 -137 17 -17 236 119 236 148 0
14 -32 10 -70 -11z"/>
<path d="M3805 10461 c-16 -10 -41 -30 -54 -45 l-25 -26 30 -31 c28 -30 93
-69 114 -69 6 0 22 11 35 25 35 34 34 93 -1 134 -30 36 -56 39 -99 12z"/>
<path d="M1728 10170 c-57 -10 -106 -42 -114 -77 -11 -42 3 -122 41 -243 45
-144 59 -240 45 -306 -14 -60 -50 -124 -90 -158 -34 -28 -68 -116 -46 -116 7
0 40 14 74 31 89 44 171 138 232 264 68 139 84 206 84 345 1 100 -2 122 -23
168 -43 95 -81 112 -203 92z"/>
<path d="M4226 8402 c-6 -11 26 -22 62 -22 15 0 22 5 20 13 -5 14 -74 22 -82
9z"/>
<path d="M1430 8172 c-16 -5 -90 -72 -90 -82 0 -12 71 -40 99 -40 31 0 61 27
61 54 0 40 -39 78 -70 68z"/>
<path d="M4260 7301 c-88 -25 -161 -55 -250 -103 -158 -86 -252 -160 -460
-363 -228 -222 -315 -294 -489 -406 -136 -87 -273 -150 -393 -181 l-83 -22 -1
-115 c0 -139 -21 -227 -88 -360 -149 -295 -436 -517 -760 -587 -57 -13 -107
-14 -245 -9 l-174 7 61 -57 c42 -38 72 -78 94 -122 45 -91 43 -172 -7 -393
-32 -144 -36 -176 -32 -250 10 -150 47 -230 101 -216 39 10 71 92 101 257 42
230 88 322 235 469 110 111 197 171 485 340 383 224 454 279 535 416 87 146
167 240 446 525 335 342 432 470 532 700 58 133 113 179 214 179 102 0 201
-44 418 -184 73 -47 142 -86 153 -86 17 0 19 5 15 38 -3 20 -26 83 -52 138
-43 95 -46 106 -46 186 0 69 -4 93 -23 129 -44 85 -145 109 -287 70z"/>
<path d="M2027 6723 c-22 -21 0 -142 59 -323 l36 -112 -95 -97 c-95 -97 -141
-165 -135 -203 5 -37 52 -62 111 -62 158 3 385 212 404 373 10 87 -56 179
-151 211 -17 5 -41 25 -53 43 -65 95 -160 187 -176 170z"/>
<path d="M3564 5931 c-45 -21 -89 -68 -128 -142 -35 -63 -50 -190 -43 -364 9
-238 78 -404 325 -775 82 -124 171 -264 197 -312 26 -49 53 -88 61 -88 36 0
168 -149 318 -359 164 -231 217 -291 242 -270 43 35 -8 224 -121 449 -103 207
-186 335 -429 660 -88 118 -200 271 -248 340 -76 108 -86 126 -72 135 9 6 36
22 60 37 82 51 134 164 134 293 0 174 -82 350 -185 396 -50 23 -60 23 -111 0z"/>
<path d="M804 5768 c-11 -13 -27 -34 -36 -48 -15 -24 -14 -27 16 -61 40 -45
98 -89 119 -89 9 0 24 11 33 24 13 21 14 33 4 81 -21 100 -89 146 -136 93z"/>
<path d="M2066 4009 c-14 -11 -34 -35 -42 -52 -16 -31 -64 -164 -64 -178 0 -4
33 -15 73 -25 55 -15 109 -19 232 -19 144 0 165 2 208 22 33 15 47 28 47 42 0
30 -74 87 -159 122 -42 17 -96 43 -121 58 -49 30 -103 51 -130 51 -10 0 -29
-9 -44 -21z"/>
<path d="M1545 3676 c-25 -33 -25 -36 -11 -64 18 -35 70 -92 85 -92 32 0 41
86 15 150 -21 52 -52 54 -89 6z"/>
<path d="M1634 3274 c-21 -14 -62 -49 -91 -76 -46 -45 -53 -57 -62 -113 -19
-107 13 -215 64 -215 63 0 185 239 185 364 0 71 -31 83 -96 40z"/>
<path d="M2010 2969 c-19 -12 -52 -35 -73 -52 l-39 -30 29 -24 c63 -54 148
-77 194 -53 47 26 63 110 28 154 -26 34 -88 36 -139 5z"/>
<path d="M1820 2363 c-43 -17 -127 -110 -112 -125 12 -12 106 -22 136 -14 64
16 85 78 41 121 -24 25 -37 28 -65 18z"/>
<path d="M4320 2203 c-19 -2 -80 -13 -135 -24 -55 -11 -142 -24 -194 -29 -90
-10 -181 -39 -181 -58 0 -16 70 -64 121 -83 98 -38 275 -14 400 52 55 30 119
88 119 108 0 25 -63 42 -130 34z"/>
<path d="M5619 10179 c-27 -38 -36 -108 -19 -149 18 -43 96 -110 177 -153 38
-20 156 -72 262 -117 276 -116 352 -156 441 -236 19 -17 53 -37 75 -44 73 -23
216 -104 284 -161 119 -100 225 -261 271 -411 72 -237 34 -494 -102 -684 -28
-39 -33 -42 -91 -47 -96 -9 -177 -42 -320 -130 -191 -117 -239 -140 -307 -145
-104 -8 -177 45 -261 191 -20 34 -58 99 -85 144 -27 46 -76 132 -108 192 -105
194 -202 301 -273 301 -27 0 -74 -22 -90 -42 -22 -26 153 -347 305 -563 82
-115 270 -300 365 -359 136 -85 276 -123 399 -111 65 7 72 10 138 65 89 74
122 94 189 114 202 59 372 -53 661 -438 74 -98 140 -185 147 -194 10 -12 18
-9 55 22 108 93 245 119 338 64 200 -117 360 -537 360 -946 0 -131 1 -137 27
-174 93 -135 512 -331 587 -275 28 21 14 48 -73 140 -172 183 -232 297 -406
772 -76 206 -160 387 -230 495 -27 41 -94 121 -150 177 -56 56 -108 116 -115
133 -33 80 -129 124 -349 160 -208 35 -261 71 -247 168 7 51 71 176 121 237
44 55 122 96 193 102 81 7 166 -16 344 -92 84 -36 182 -72 219 -80 93 -19 154
-53 229 -127 81 -80 141 -167 270 -389 149 -255 200 -313 259 -294 25 8 25 6
5 101 -46 226 -195 513 -379 734 -79 94 -230 239 -296 284 -27 18 -59 48 -71
66 -13 19 -45 45 -73 59 -75 39 -186 34 -435 -18 -343 -72 -420 -52 -420 111
0 35 9 96 20 136 11 39 20 87 20 106 0 50 -33 133 -102 253 -126 223 -134 304
-43 432 85 120 146 302 159 481 6 80 -6 135 -35 153 -34 21 -74 -4 -194 -127
-134 -138 -173 -170 -261 -214 -104 -53 -166 -66 -299 -66 -236 0 -435 73
-867 322 -98 56 -182 102 -187 102 -5 0 -20 -14 -32 -31z"/>
<path d="M9288 9304 c-21 -9 -38 -20 -38 -24 0 -14 58 -70 73 -70 8 0 26 10
41 21 21 16 26 28 24 53 -3 27 -7 31 -33 33 -16 1 -47 -5 -67 -13z"/>
<path d="M9861 8131 c-8 -14 -5 -23 11 -40 26 -29 43 -14 33 28 -7 35 -29 41
-44 12z"/>
<path d="M9338 8028 c-44 -12 -88 -50 -88 -76 0 -30 91 -109 134 -118 59 -10
123 1 165 30 85 59 79 152 -11 170 -44 9 -157 6 -200 -6z"/>
<path d="M6860 7428 c-376 -400 -547 -550 -674 -592 -45 -15 -53 -16 -89 -1
-36 15 -42 14 -76 -2 -79 -39 -129 -161 -205 -503 -26 -113 -49 -215 -52 -227
-6 -20 3 -18 92 27 243 121 552 143 808 60 237 -78 441 -252 545 -465 161
-329 165 -342 166 -530 0 -143 -6 -182 -71 -455 -25 -102 -51 -223 -59 -269
-20 -114 -19 -313 1 -404 33 -141 2 -510 -65 -782 -90 -366 -295 -805 -453
-972 -74 -79 -93 -129 -92 -238 0 -74 8 -117 42 -240 65 -239 73 -303 47 -391
-24 -83 -70 -140 -164 -206 -162 -114 -204 -215 -141 -338 37 -73 133 -130
195 -114 65 16 96 105 78 223 -10 62 -9 69 17 121 30 59 70 113 192 262 102
124 131 183 136 274 3 61 0 79 -23 127 -14 31 -42 75 -61 98 -31 38 -34 46
-34 109 0 254 163 640 354 838 22 24 70 63 106 87 l65 44 158 -10 c229 -15
416 6 405 44 -6 20 -128 74 -228 102 -185 51 -222 72 -263 149 -23 45 -26 100
-17 421 5 160 5 160 -27 250 -43 123 -56 205 -56 370 1 170 13 254 96 640 61
279 76 370 93 533 3 34 10 62 15 62 28 0 209 -45 281 -69 298 -102 569 -272
804 -506 164 -163 192 -204 244 -355 53 -156 114 -286 140 -300 37 -20 44 17
51 295 5 195 12 288 27 373 53 291 36 409 -69 463 -34 17 -57 20 -147 18
l-106 -1 -161 81 c-88 44 -277 148 -420 231 -524 304 -719 386 -1049 445 -210
38 -299 71 -377 142 -59 53 -81 104 -87 194 -6 102 19 193 123 449 119 294
137 354 143 483 3 63 1 107 -5 107 -5 0 -74 -69 -153 -152z"/>
<path d="M7754 6662 c-21 -16 -68 -58 -103 -93 l-63 -64 43 -3 c24 -2 61 2 82
8 72 21 157 121 141 164 -10 25 -57 19 -100 -12z"/>
<path d="M9379 6026 c-21 -7 -49 -23 -64 -34 l-28 -22 68 -31 c37 -16 91 -35
121 -41 45 -9 57 -8 79 6 45 30 26 89 -39 120 -41 19 -88 20 -137 2z"/>
<path d="M6388 5723 c-186 -384 -249 -619 -234 -873 10 -167 47 -290 141 -464
55 -102 75 -177 75 -287 0 -115 -22 -194 -118 -429 -45 -107 -88 -228 -98
-269 -22 -100 -16 -263 14 -340 21 -53 21 -54 2 -80 -64 -89 -154 -147 -363
-230 -192 -78 -187 -74 -156 -100 78 -64 209 -107 296 -97 119 14 221 75 436
259 165 142 242 197 329 237 l61 27 -48 12 c-114 29 -185 93 -206 186 -16 71
-4 163 46 375 76 318 66 438 -53 627 -43 67 -77 164 -92 258 -23 139 -7 275
70 600 27 115 54 244 61 285 17 110 7 319 -19 400 -40 123 -36 126 -144 -97z"/>
<path d="M5680 5462 c42 -14 108 -23 88 -11 -9 5 -38 11 -65 14 -34 4 -41 3
-23 -3z"/>
<path d="M7991 4203 c-21 -74 -5 -160 47 -256 59 -110 142 -42 129 105 -8 89
-62 158 -144 182 -19 6 -23 2 -32 -31z"/>
<path d="M7536 2469 c-95 -14 -109 -39 -49 -88 68 -56 164 -62 254 -15 36 18
61 56 53 77 -13 34 -125 45 -258 26z"/>
<path d="M5904 1921 c-104 -38 -264 -146 -250 -169 13 -22 124 -72 193 -88 48
-11 97 -14 163 -11 111 6 158 18 200 53 64 54 26 120 -108 192 -89 47 -120 51
-198 23z"/>
<path d="M5399 1395 c-14 -8 -34 -26 -43 -41 -17 -25 -17 -27 11 -56 24 -26
72 -58 87 -58 2 0 12 7 20 16 31 31 14 112 -29 140 -16 10 -25 10 -46 -1z"/>
<path d="M5745 1287 c-71 -27 -72 -36 -24 -134 45 -93 105 -131 158 -102 67
38 95 170 48 225 -33 38 -101 42 -182 11z"/>
</g>
</svg>
