<?xml version="1.0" ?><svg viewBox="0 0 32 32" xmlns="http://www.w3.org/2000/svg"><title/><g id="kidneys"><path d="M30.88,8.71V8.66a2,2,0,0,0-.05-.24,4.21,4.21,0,0,0-.09-.49c-.06-.25-.12-.49-.19-.73,0,0,0-.11-.05-.16-.11-.32-.23-.63-.36-.94,0,0,0,0,0-.08-.12-.27-.26-.54-.4-.8L29.58,5c-.13-.22-.26-.43-.41-.64L29,4.17c-.15-.2-.31-.39-.47-.58l-.17-.19c-.22-.24-.45-.48-.69-.7l0,0a5.83,5.83,0,0,0-1.37-1l0,0h0a5.68,5.68,0,0,0-5.93.55,5.52,5.52,0,0,0-2.16,4.39,5.14,5.14,0,0,0,.08.88,1.55,1.55,0,0,0,.05.23,4.77,4.77,0,0,0,.17.65,1.8,1.8,0,0,0,.08.21,4.91,4.91,0,0,0,.28.62c0,.06.07.12.1.19s.08.15.13.23a5.61,5.61,0,0,0-.13.59A6.59,6.59,0,0,0,16,12.77a6.59,6.59,0,0,0-2.89-2.64c0-.2-.08-.4-.13-.6s.06-.12.1-.19.11-.19.16-.28.16-.34.23-.51.08-.2.11-.3.11-.38.15-.57a2.8,2.8,0,0,0,.06-.28,5,5,0,0,0,.08-.87,5.52,5.52,0,0,0-2.16-4.39,5.68,5.68,0,0,0-5.93-.55h0l0,0a5.83,5.83,0,0,0-1.37,1l0,0a9.25,9.25,0,0,0-.7.7l-.15.18a7,7,0,0,0-.48.6l-.15.21c-.15.21-.28.42-.41.64l-.12.19c-.14.26-.28.53-.4.8l0,.08c-.13.31-.25.62-.36.94,0,0,0,.11-.05.16-.07.24-.13.48-.19.73a4.21,4.21,0,0,0-.09.49,2,2,0,0,0,0,.24v.05A10.15,10.15,0,0,0,1,10.17v3.64H1a10.08,10.08,0,0,0,4.06,8.09A5.52,5.52,0,0,0,8.34,23a5.33,5.33,0,0,0,1.32-.19h.06a5.13,5.13,0,0,0,1.95-1l.07-.05a6.63,6.63,0,0,0,2.34-5.05h0a6.72,6.72,0,0,0-.1-1.1h0c0-.07,0-.13-.05-.19s0-.07,0-.1a7.1,7.1,0,0,0-.22-.79v0l-.06-.14a1,1,0,0,1,0-.1,5.62,5.62,0,0,0-.38-.78l0-.07,0-.06-.06-.09a3.54,3.54,0,0,0-.19-.33A4.77,4.77,0,0,0,13,12.4,5.08,5.08,0,0,1,15,16V30a1,1,0,0,0,2,0V16a5.12,5.12,0,0,1,2-3.63,4.77,4.77,0,0,0,.13.51c-.06.08-.1.18-.16.27l-.06.1-.13.22,0,.06a5.71,5.71,0,0,0-.29.61l0,.1-.1.25,0,0c-.08.24-.13.47-.19.71,0,0,0,.08,0,.12L18,15.6h0a6.72,6.72,0,0,0-.1,1.1h0a6.63,6.63,0,0,0,2.34,5.05l.07.05A5.26,5.26,0,0,0,23.66,23a5.45,5.45,0,0,0,3.28-1.09,10.12,10.12,0,0,0,3.34-4.37,1.12,1.12,0,0,1,0-.13c.07-.19.14-.38.2-.58a3,3,0,0,0,.1-.32c0-.16.09-.33.12-.49s.08-.39.11-.59a2.21,2.21,0,0,0,.05-.25A10.24,10.24,0,0,0,31,13.82h0V10.17A10.15,10.15,0,0,0,30.88,8.71Z"/></g></svg>